# xmcd
#
# Track frame offsets: 
#        150
#        15919
#        28828
#        42886
#
# Disc length: 785 seconds
#
# Revision: 1
# Processed by: cddbd v1.5.2PL0 Copyright (c) Steve Scherf et al.
# Submitted via: ExactAudioCopyFreeDBPlugin 1.0
#
DISCID=23030f04
DTITLE=Eli "Paperboy" Reed - Time and Place:  Eli "Paperboy" Reed Meet
DTITLE=s The Pepper Pots
DYEAR=2012
DGENRE=Soul
TTITLE0=Time and Place
TTITLE1=Don't Mess Up a Good Thing
TTITLE2=There Ain't No Man That Can't Be Caught
TTITLE3=Take It Like a Man
EXTD=
EXTT0=
EXTT1=
EXTT2=
EXTT3=
PLAYORDER=
